<?xml version="1.0" encoding="UTF-8"?>
<svg xmlns="http://www.w3.org/2000/svg" xmlns:xlink="http://www.w3.org/1999/xlink" width="256px" height="px" viewBox="0 0 256 256" version="1.1">
<g id="surface1">
<path style=" stroke:none;fill-rule:nonzero;fill:rgb(0%,0%,0%);fill-opacity:1;" d="M 128 25.601562 C 71.449219 25.601562 25.601562 71.449219 25.601562 128 C 25.601562 175.984375 58.640625 216.132812 103.183594 227.242188 C 102.707031 225.859375 102.398438 224.257812 102.398438 222.269531 L 102.398438 204.765625 C 98.246094 204.765625 91.28125 204.765625 89.53125 204.765625 C 82.527344 204.765625 76.296875 201.753906 73.277344 196.15625 C 69.921875 189.933594 69.34375 180.421875 61.03125 174.601562 C 58.5625 172.664062 60.441406 170.453125 63.28125 170.753906 C 68.53125 172.238281 72.882812 175.835938 76.980469 181.179688 C 81.058594 186.53125 82.976562 187.742188 90.597656 187.742188 C 94.292969 187.742188 99.824219 187.527344 105.027344 186.710938 C 107.828125 179.601562 112.664062 173.054688 118.578125 169.96875 C 84.480469 166.460938 68.207031 149.496094 68.207031 126.464844 C 68.207031 116.546875 72.429688 106.957031 79.609375 98.875 C 77.253906 90.855469 74.292969 74.496094 80.511719 68.265625 C 95.855469 68.265625 105.128906 78.214844 107.359375 80.90625 C 115.003906 78.285156 123.402344 76.800781 132.222656 76.800781 C 141.066406 76.800781 149.496094 78.285156 157.160156 80.921875 C 159.359375 78.25 168.644531 68.265625 184.019531 68.265625 C 190.269531 74.503906 187.273438 90.929688 184.890625 98.933594 C 192.027344 107 196.222656 116.566406 196.222656 126.464844 C 196.222656 149.476562 179.976562 166.433594 145.929688 169.957031 C 155.296875 174.847656 162.132812 188.585938 162.132812 198.9375 L 162.132812 222.269531 C 162.132812 223.15625 161.9375 223.796875 161.835938 224.554688 C 201.738281 210.570312 230.398438 172.679688 230.398438 128 C 230.398438 71.449219 184.550781 25.601562 128 25.601562 Z M 128 25.601562 "/>
</g>
</svg>
