<?xml version="1.0" encoding="UTF-8"?>
<svg xmlns="http://www.w3.org/2000/svg" xmlns:xlink="http://www.w3.org/1999/xlink" width="256px" height="px" viewBox="0 0 256 256" version="1.1">
<g id="surface1">
<path style=" stroke:none;fill-rule:nonzero;fill:rgb(0%,0%,0%);fill-opacity:1;" d="M 209.921875 20.480469 L 46.078125 20.480469 C 31.949219 20.480469 20.480469 31.949219 20.480469 46.078125 L 20.480469 209.921875 C 20.480469 224.050781 31.949219 235.519531 46.078125 235.519531 L 209.921875 235.519531 C 224.050781 235.519531 235.519531 224.050781 235.519531 209.921875 L 235.519531 46.078125 C 235.519531 31.949219 224.050781 20.480469 209.921875 20.480469 Z M 87.039062 102.398438 L 87.039062 199.679688 L 56.320312 199.679688 L 56.320312 102.398438 Z M 56.320312 74.085938 C 56.320312 66.917969 62.464844 61.441406 71.679688 61.441406 C 80.894531 61.441406 86.679688 66.917969 87.039062 74.085938 C 87.039062 81.253906 81.304688 87.039062 71.679688 87.039062 C 62.464844 87.039062 56.320312 81.253906 56.320312 74.085938 Z M 199.679688 199.679688 L 168.960938 199.679688 C 168.960938 199.679688 168.960938 152.269531 168.960938 148.480469 C 168.960938 138.238281 163.839844 128 151.039062 127.796875 L 150.628906 127.796875 C 138.238281 127.796875 133.121094 138.34375 133.121094 148.480469 C 133.121094 153.140625 133.121094 199.679688 133.121094 199.679688 L 102.398438 199.679688 L 102.398438 102.398438 L 133.121094 102.398438 L 133.121094 115.507812 C 133.121094 115.507812 143 102.398438 162.867188 102.398438 C 183.195312 102.398438 199.679688 116.378906 199.679688 144.691406 Z M 199.679688 199.679688 "/>
</g>
</svg>
